<?xml version="1.0" standalone="no"?>
<!DOCTYPE svg PUBLIC "-//W3C//DTD SVG 20010904//EN"
 "http://www.w3.org/TR/2001/REC-SVG-20010904/DTD/svg10.dtd">
<svg version="1.0" xmlns="http://www.w3.org/2000/svg"
 width="480.000000pt" height="480.000000pt" viewBox="0 0 480.000000 480.000000"
 preserveAspectRatio="xMidYMid meet">

<g transform="translate(0.000000,480.000000) scale(0.100000,-0.100000)"
fill="#000000" stroke="none">
<path d="M0 2400 l0 -2400 2400 0 2400 0 0 2400 0 2400 -2400 0 -2400 0 0
-2400z m1103 855 c176 -47 265 -57 612 -65 355 -9 401 -15 475 -64 50 -33 95
-94 117 -160 16 -47 18 -131 21 -998 l3 -947 -38 11 c-115 31 -230 121 -282
217 -59 111 -61 133 -61 809 0 666 1 650 -56 704 -46 43 -74 48 -254 48 -193
0 -282 14 -394 60 -191 80 -341 236 -406 425 -11 32 -20 59 -20 60 0 1 43 -15
96 -36 52 -21 136 -50 187 -64z m2854 31 c-36 -98 -84 -172 -162 -251 -77 -78
-178 -143 -271 -176 -110 -39 -183 -49 -361 -49 -183 0 -211 -5 -257 -48 -57
-54 -56 -38 -56 -704 0 -669 -3 -699 -57 -801 -15 -29 -51 -75 -80 -104 -54
-53 -178 -123 -219 -123 l-24 0 0 913 c0 616 4 933 11 972 21 112 80 195 169
234 67 30 189 41 439 41 342 0 567 36 791 127 52 22 96 38 98 37 1 -1 -8 -31
-21 -68z"/>
</g>
</svg>
